<svg width="165" height="165" viewBox="0 0 165 165" fill="none" xmlns="http://www.w3.org/2000/svg">
<path d="M74.25 90.75V115.5C74.25 117.837 75.042 119.798 76.626 121.382C78.21 122.966 80.168 123.755 82.5 123.75C84.8319 123.744 86.7927 122.952 88.3822 121.374C89.9717 119.795 90.7609 117.837 90.7499 115.5V90.75H115.5C117.837 90.75 119.798 89.958 121.382 88.374C122.966 86.79 123.755 84.832 123.75 82.5C123.744 80.168 122.952 78.21 121.374 76.626C119.795 75.042 117.837 74.25 115.5 74.25H90.7499V49.5C90.7499 47.1625 89.9579 45.2045 88.3739 43.626C86.7899 42.0475 84.8319 41.2555 82.5 41.25C80.168 41.2445 78.21 42.0365 76.626 43.626C75.042 45.2155 74.25 47.1735 74.25 49.5V74.25H49.5C47.1625 74.25 45.2045 75.042 43.626 76.626C42.0475 78.21 41.2555 80.168 41.25 82.5C41.2445 84.832 42.0365 86.7927 43.626 88.3822C45.2155 89.9717 47.1735 90.761 49.5 90.75H74.25ZM82.5 165C71.0875 165 60.3625 162.833 50.325 158.499C40.2875 154.165 31.5562 148.288 24.1312 140.869C16.7063 133.449 10.8295 124.718 6.50101 114.675C2.17251 104.632 0.00551044 93.907 1.0443e-05 82.5C-0.00548955 71.093 2.16151 60.368 6.50101 50.325C10.8405 40.282 16.7172 31.5507 24.1312 24.1312C31.5452 16.7117 40.2765 10.835 50.325 6.501C60.3735 2.167 71.0985 0 82.5 0C93.9014 0 104.626 2.167 114.675 6.501C124.723 10.835 133.455 16.7117 140.869 24.1312C148.283 31.5507 154.162 40.282 158.507 50.325C162.852 60.368 165.016 71.093 165 82.5V148.5C165 153.037 163.386 156.923 160.157 160.157C156.929 163.391 153.043 165.005 148.5 165H82.5Z" fill="white"/>
</svg>
