<svg xmlns="http://www.w3.org/2000/svg" data-name="レイヤー 1" viewBox="0 0 115.69 110.52"><path d="M43.78.1c16.34-1.12 29.4 7.04 42.36 16.19 15.73 11.1 25.68 25.55 28.83 44.61 2.68 16.22-1.89 30.52-16.87 38.42-9.12 4.81-17.84 9.83-28.5 10.87-15.62 1.52-29.51-2.22-40.83-12.88C11.77 81.29.99 61.7.03 37.97-.68 20.39 10.89 5.73 29.57 1.17 34.12.06 38.75-.14 43.78.1m31.09 94.17c-.02.5-.05.99-.07 1.49-.08 2.01-.37 4.49 2.37 4.61 2.6.12 2.74-2.46 3.1-4.38.21-1.13.19-2.32.14-3.47-.34-8.14-4.13-14.94-8.6-21.39-9.59-13.8-20.68-26.36-32.37-38.39-3.85-3.97-8.19-7.2-13.71-8.65-1.91-.5-3.95-2.09-4.95.73-.97 2.75.66 4.57 3.36 4.95 3.3.47 6.01 1.99 8.3 4.19C46.6 47.56 59.58 62.18 70.13 78.8c2.95 4.65 5.04 9.73 4.75 15.46ZM41.75 8.04c-2.75.66-2.71 2.98-2.72 5.11-.03 7.43 2.91 13.93 6.83 19.99 9.56 14.79 21.51 27.41 35.43 38.16 4.36 3.37 9.28 5.8 14.42 7.78 1.65.63 3.41 1.15 4.36-.78 1.15-2.32-.78-3.33-2.45-4.07-18.45-8.18-31.2-22.81-43.1-38.3-5.49-7.15-10.25-14.79-9.93-24.41.06-1.78-.59-3.29-2.84-3.47Z" style="fill:#c68674"/><path d="M74.87 94.27c.29-5.73-1.8-10.81-4.75-15.46-10.55-16.62-23.53-31.24-37.69-44.84-2.29-2.2-5-3.72-8.3-4.19-2.69-.38-4.33-2.21-3.36-4.95 1-2.82 3.04-1.23 4.95-.73 5.53 1.44 9.86 4.68 13.71 8.65C51.12 44.78 62.21 57.34 71.8 71.14c4.48 6.44 8.26 13.25 8.6 21.39.05 1.16.07 2.35-.14 3.47-.36 1.91-.5 4.49-3.1 4.38-2.74-.12-2.45-2.61-2.37-4.61.02-.5.05-.99.07-1.49Z" style="fill:#060102"/><path d="M41.75 8.04c2.26.18 2.9 1.7 2.84 3.47-.32 9.63 4.44 17.27 9.93 24.41 11.9 15.49 24.65 30.12 43.1 38.3 1.67.74 3.59 1.75 2.45 4.07-.95 1.92-2.71 1.41-4.36.78-5.14-1.98-10.06-4.41-14.42-7.78-13.92-10.75-25.86-23.38-35.43-38.16-3.92-6.06-6.86-12.55-6.83-19.99 0-2.13-.03-4.45 2.72-5.11Z" style="fill:#050101"/></svg>