<svg xmlns="http://www.w3.org/2000/svg" width="538" height="546" fill="none"><circle cx="253.174" cy="284.822" r="102.851" fill="#fff"/><path fill="#fff" d="M507.861 373.201c1.279 1.61 2.451 3.112 3.731 4.722-36.35 91.879-105.318 143.614-199.655 162.827C175.813 568.442 38.304 479.784 6.111 344.113c-1.172-5.152-1.599-10.519-2.345-15.778-7.035-35.206-3.304-69.982 3.731-104.651 19.4-60 53.192-109.267 105.744-144.58 4.797-3.22 10.126-5.689 15.243-8.587 1.173 1.073 2.239 2.254 3.411 3.328 2.132 6.01-4.157 6.547-6.289 9.874-39.44 27.156-71.526 60.752-91.993 104.866-7.035 15.134-12.685 30.483-15.563 46.905-6.076 26.941-5.436 54.312-5.223 81.682 18.335 118.283 104.997 200.286 224.172 214.025 113.099 13.095 215.965-52.594 256.258-139.32 3.304-7.192 5.223-16.208 14.817-18.784zM508.183 99.168c-1.173 1.396-2.452 2.791-3.624 4.186-17.376-16.314-35.923-31.77-46.263-54.096 1.279-1.288 2.665-2.469 3.944-3.757 19.614 14.168 35.283 31.771 45.943 53.667M527.793 245.695l.32.322c-2.345-5.475-1.599-9.661-2.025-13.525 0-.322-.107-.644-.214-.966.107 2.362.214 4.83.427 7.192.106 2.361.213 4.83 1.492 6.869z"/><path fill="#fff" d="M128.485 84.896c-1.386-1.288-2.665-2.684-4.051-3.972 2.452-2.254 4.904-4.615 7.355-6.87h6.503c-.533 6.119-5.65 8.158-9.807 10.949zM516.172 336.276c-1.172-2.683-2.345-5.259-3.518-7.943 1.173-3.005 2.346-6.118 5.117-13.309 1.919 10.304 2.239 15.885-1.599 21.252M522.995 234.846c2.132 2.362 4.264 4.616 6.396 6.977v9.66c-6.076-5.152-7.142-10.519-6.396-16.529zM221.011 31.55c1.279 1.289 2.665 2.577 3.944 3.865-3.944 3.113-8.208 3.65-13.005 2.04 1.599-4.509 5.437-5.045 9.061-5.904"/><path fill="#fff" d="M508.18 99.168c-4.05-.536-5.116 2.254-5.969 5.367.426 14.705 9.807 26.297 14.071 39.714 9.06 28.658 7.888 58.068 9.593 87.37 0 .322.107.644.214.966.426 3.864-.32 7.943 2.025 13.524.426.537.959.752.959.752 1.706-1.718.853 2.468 1.706 4.079a28 28 0 0 1-2.665-4.831c-.107-.107-.213-.107-.32-.322-1.279-2.039-1.386-4.508-1.492-6.869-.213-2.361-.32-4.83-.427-7.191-3.304-21.682-11.086-41.968-21.745-60.859C447.74 69.329 341.57 16.306 227.086 31.87c-4.584 1.288-8.528 5.152-13.751 3.864 4.37.966 7.675-1.932 11.406-3.328 7.461-1.61 14.817-3.971 22.065-6.332C314.815 3.854 380.585 4.607 442.624 45.179c4.477 2.898 9.06 5.689 14.603 5.796 3.092-.537 5.437-1.61 4.904-5.474C417.893 8.685 366.301-3.014 310.124.635c-67.795 4.294-123.332 40.895-181.64 70.09-1.492 2.04-.32 3.434 1.173 4.722 2.878 6.011-4.051 5.796-5.437 9.124-50.1 45.939-79.307 103.685-94.338 169.481-6.076 23.936-5.65 47.979-2.238 72.236 2.025 58.176 26.223 106.047 69.394 143.399 47.649 41.217 104.145 57.532 166.61 49.267 117.683-15.456 199.549-80.179 250.502-186.655 1.279-2.576 2.771-5.581 1.812-7.943-.533-1.395 2.132-1.395 1.279.752-1.492 4.186-3.304 8.265-4.903 12.451-2.345 12.021-8.102 23.398-6.503 36.064 1.066 2.683 2.452 4.83 5.863 4.293 5.863-10.518 8.421-22.218 11.086-33.703 7.888-34.239 9.274-69.553 13.218-104.222 5.543-48.944.533-97.674-27.608-140.715zm-240.694 254.92c-46.476-.537-81.546-36.816-80.694-83.399.746-46.261 37.309-82.326 83.039-82.111 45.09.322 82.292 38.104 82.079 83.506-.213 46.798-37.095 82.648-84.424 82.004"/></svg>