<svg xmlns="http://www.w3.org/2000/svg" width="122" height="122" fill="none"><path stroke="#AC4C4D" stroke-linecap="round" stroke-linejoin="round" stroke-width="8" d="M39.47 4h43.06C102.118 4 118 19.88 118 39.47v43.06c0 19.589-15.881 35.47-35.47 35.47H39.47C19.88 118 4 102.119 4 82.53V39.47l.012-.915C4.49 19.693 19.692 4.49 38.555 4.012z"/><path stroke="#AC4C4D" stroke-linecap="round" stroke-linejoin="round" stroke-width="8" d="M61 86.879c14.292 0 25.878-11.586 25.878-25.879 0-14.292-11.586-25.878-25.878-25.878S35.12 46.708 35.12 61 46.709 86.88 61 86.88"/><path fill="#AC4C4D" d="M94.122 35.27a7.392 7.392 0 1 0 0-14.785 7.392 7.392 0 0 0 0 14.785"/></svg>