<svg xmlns="http://www.w3.org/2000/svg" width="127" height="122" fill="none"><path fill="#fff" d="M127 52.19C127 23.516 98.323 0 63.5 0S0 23.31 0 52.19c0 25.581 22.53 47.037 53.054 51.162 2.045.204 4.915 1.445 5.525 3.095.622 1.445.21 4.125.21 5.775 0 0-.82 4.745-.82 5.57-.203 1.445-1.232 6.395 5.531 3.095 6.553-2.884 36.462-21.871 49.981-37.13C122.701 73.851 127 63.536 127 52.191M40.97 67.252c-.023.321-.16.623-.387.851a1.33 1.33 0 0 1-.845.39H21.92c-.21 0-.616-.211-.825-.211-.203-.205-.203-.614-.203-.825V39.4c0-.62.616-1.234 1.231-1.234h4.3c.615 0 1.231.614 1.231 1.234v22.076h12.084c.616 0 1.232.62 1.232 1.235zm10.65 0c-.024.321-.162.623-.388.851a1.33 1.33 0 0 1-.845.39h-4.299a1.33 1.33 0 0 1-.84-.392 1.35 1.35 0 0 1-.385-.849v-27.85c0-.62.61-1.235 1.225-1.235h4.3c.615 0 1.231.614 1.231 1.234zm30.93 0c-.023.321-.16.623-.387.851a1.33 1.33 0 0 1-.845.39h-4.502c-.203 0-.203-.211-.203-.211L63.5 50.95v16.506c-.023.321-.16.623-.387.85a1.33 1.33 0 0 1-.845.39H57.97a1.33 1.33 0 0 1-.845-.39 1.35 1.35 0 0 1-.387-.85V39.605c0-.614.616-1.234 1.232-1.234h4.306l.203.204 12.7 17.127V39.196c0-.62.61-1.24 1.225-1.24h4.915c.616 0 1.232.62 1.232 1.24zm24.581-23.31c-.025.32-.163.62-.389.847a1.33 1.33 0 0 1-.843.387H93.815v4.745h12.084c.616 0 1.232.62 1.232 1.241v4.33a1.35 1.35 0 0 1-.387.85 1.33 1.33 0 0 1-.845.39H93.815v4.33h12.084c.616 0 1.232.62 1.232 1.24v4.33a1.35 1.35 0 0 1-.387.85 1.33 1.33 0 0 1-.845.39H88.081c-.203 0-.616-.204-.826-.204-.197-.211-.197-.62-.197-.832V38.998c0-.212.204-.62.204-.832.203-.204.616-.204.819-.204h17.818c.616 0 1.232.62 1.232 1.24z"/></svg>